<?xml version="1.0" encoding="iso-8859-1"?>
<!-- Uploaded to: SVG Repo, www.svgrepo.com, Generator: SVG Repo Mixer Tools -->
<!DOCTYPE svg PUBLIC "-//W3C//DTD SVG 1.1//EN" "http://www.w3.org/Graphics/SVG/1.1/DTD/svg11.dtd">
<svg fill="#000000" version="1.1" id="Capa_1" xmlns="http://www.w3.org/2000/svg" xmlns:xlink="http://www.w3.org/1999/xlink" 
	 width="800px" height="800px" viewBox="0 0 261.341 261.341"
	 xml:space="preserve">
<g>
	<g>
		<path d="M124.023,152.979H56.995c-4.864,0-8.818,3.951-8.818,8.827v50.717c0,4.875,3.954,8.814,8.818,8.814h67.028
			c4.864,0,8.818-3.939,8.818-8.814v-50.717C132.835,156.93,128.887,152.979,124.023,152.979z"/>
		<path d="M256.963,60.709l-51.166-29.802V10.266c0-4.876-3.951-8.824-8.821-8.824H65.762c-4.864,0-8.821,3.948-8.821,8.824v19.84
			L4.377,60.715C1.667,62.291,0,65.197,0,68.335v24.374c0,11.394,5.78,21.686,15.09,27.739v130.632c0,4.869,3.942,8.82,8.818,8.82
			h126.199h59.916h27.395c4.863,0,8.827-3.951,8.827-8.82V120.441c9.307-6.059,15.096-16.351,15.096-27.739V68.329
			C261.347,65.197,259.672,62.297,256.963,60.709z M228.627,242.258h-9.782v-80.452c0-4.876-3.951-8.827-8.815-8.827h-59.915
			c-4.87,0-8.818,3.951-8.818,8.827v80.452H32.726V125.894c0.153,0,0.312,0,0.465,0c9.623,0,18.306-4.119,24.368-10.686
			c6.065,6.566,14.748,10.686,24.376,10.686c9.487,0,18.06-4.002,24.115-10.415c6.08,6.74,14.862,10.968,24.625,10.968
			c9.617,0,18.315-4.113,24.368-10.68c0.889,0.961,1.945,1.748,2.942,2.601c0.696,0.597,1.309,1.285,2.054,1.816
			c1.159,0.853,2.462,1.474,3.723,2.161c0.715,0.391,1.381,0.892,2.114,1.219c1.351,0.604,2.81,0.985,4.251,1.402
			c0.757,0.223,1.472,0.571,2.27,0.739c2.264,0.489,4.6,0.747,7.014,0.747c9.74,0,18.507-4.209,24.571-11.024
			c1.52,1.612,3.195,3.068,5.009,4.359c4.924,3.524,10.904,5.603,17.258,5.912c0.636,0.036,1.249,0.201,1.909,0.201
			c0.078,0,0.139-0.024,0.216-0.03c0.085,0,0.156,0.03,0.253,0.03V242.258z"/>
	</g>
</g>
</svg>