<?xml version="1.0" encoding="utf-8"?>
<!-- Uploaded to: SVG Repo, www.svgrepo.com, Generator: SVG Repo Mixer Tools -->
<svg width="800px" height="800px" viewBox="0 0 22 22" xmlns="http://www.w3.org/2000/svg">
  <g id="cookie" transform="translate(-136.977 -190.994)">
    <g id="Group_225" data-name="Group 225">
      <g id="Group_224" data-name="Group 224">
        <circle id="Ellipse_71" data-name="Ellipse 71" cx="10.5" cy="10.5" r="10.5" transform="translate(137.477 191.494)" fill="#f9cb99"/>
      </g>
    </g>
    <g id="light" opacity="0.35">
      <g id="Group_226" data-name="Group 226">
        <path id="Path_198" data-name="Path 198" d="M138.977,203.494a10.5,10.5,0,0,1,17.135-8.135,10.5,10.5,0,1,0-14.77,14.77A10.455,10.455,0,0,1,138.977,203.494Z" fill="#ffffff"/>
      </g>
    </g>
    <g id="Group_228" data-name="Group 228">
      <g id="Group_227" data-name="Group 227">
        <path id="Path_199" data-name="Path 199" d="M147.977,212.994a11,11,0,1,1,11-11A11.012,11.012,0,0,1,147.977,212.994Zm0-21a10,10,0,1,0,10,10A10.012,10.012,0,0,0,147.977,191.994Z" fill="#282b24"/>
      </g>
    </g>
    <g id="Group_245" data-name="Group 245">
      <g id="Group_230" data-name="Group 230">
        <g id="Group_229" data-name="Group 229">
          <circle id="Ellipse_72" data-name="Ellipse 72" cx="0.868" cy="0.868" r="0.868" transform="translate(148.33 195.565)" fill="#231f20"/>
        </g>
      </g>
      <g id="Group_233" data-name="Group 233">
        <g id="Group_231" data-name="Group 231">
          <circle id="Ellipse_73" data-name="Ellipse 73" cx="0.656" cy="0.656" r="0.656" transform="translate(152.182 200.508)" fill="#f0efda"/>
        </g>
        <g id="Group_232" data-name="Group 232">
          <path id="Path_200" data-name="Path 200" d="M152.838,202.321a1.157,1.157,0,1,1,1.157-1.157A1.158,1.158,0,0,1,152.838,202.321Zm0-1.313a.156.156,0,0,0-.156.156c0,.172.313.172.313,0A.157.157,0,0,0,152.838,201.008Z" fill="#282b24"/>
        </g>
      </g>
      <g id="Group_235" data-name="Group 235">
        <g id="Group_234" data-name="Group 234">
          <circle id="Ellipse_74" data-name="Ellipse 74" cx="0.492" cy="0.492" r="0.492" transform="translate(149.215 206.696)" fill="#231f20"/>
        </g>
      </g>
      <g id="Group_237" data-name="Group 237">
        <g id="Group_236" data-name="Group 236">
          <circle id="Ellipse_75" data-name="Ellipse 75" cx="0.868" cy="0.868" r="0.868" transform="translate(141.131 199.639)" fill="#231f20"/>
        </g>
      </g>
      <g id="Group_239" data-name="Group 239">
        <g id="Group_238" data-name="Group 238">
          <path id="Path_201" data-name="Path 201" d="M142.7,208.063a.993.993,0,1,1,.992-.992A.994.994,0,0,1,142.7,208.063Zm-.008-.992a.008.008,0,0,0,.008.007l.492-.007Z" fill="#282b24"/>
        </g>
      </g>
      <g id="Group_241" data-name="Group 241">
        <g id="Group_240" data-name="Group 240">
          <circle id="Ellipse_76" data-name="Ellipse 76" cx="0.656" cy="0.656" r="0.656" transform="translate(145.982 204.445)" fill="#231f20"/>
        </g>
      </g>
      <g id="Group_244" data-name="Group 244">
        <g id="Group_242" data-name="Group 242">
          <circle id="Ellipse_77" data-name="Ellipse 77" cx="0.868" cy="0.868" r="0.868" transform="translate(147.083 199.639)" fill="#f0efda"/>
        </g>
        <g id="Group_243" data-name="Group 243">
          <path id="Path_202" data-name="Path 202" d="M147.951,201.876a1.368,1.368,0,1,1,1.368-1.368A1.37,1.37,0,0,1,147.951,201.876Zm0-1.737a.369.369,0,1,0,.368.369A.37.37,0,0,0,147.951,200.139Z" fill="#282b24"/>
        </g>
      </g>
    </g>
  </g>
</svg>