<?xml version="1.0" standalone="no"?>
<!DOCTYPE svg PUBLIC "-//W3C//DTD SVG 20010904//EN"
 "http://www.w3.org/TR/2001/REC-SVG-20010904/DTD/svg10.dtd">
<svg version="1.0" xmlns="http://www.w3.org/2000/svg"
 width="1024.000000pt" height="1024.000000pt" viewBox="0 0 1024.000000 1024.000000"
 preserveAspectRatio="xMidYMid meet">

<g transform="translate(0.000000,1024.000000) scale(0.100000,-0.100000)"
fill="#000000" stroke="none">
<path d="M5705 10033 c-265 -34 -504 -178 -624 -377 -45 -76 -79 -172 -94
-270 l-13 -81 -89 -7 c-465 -39 -865 -173 -1217 -410 -348 -233 -604 -528
-784 -903 -178 -370 -235 -772 -154 -1076 11 -41 20 -77 20 -81 0 -3 -20 -18
-44 -32 -128 -75 -190 -224 -189 -451 1 -152 22 -246 80 -365 61 -124 189
-234 301 -256 26 -5 31 -14 56 -99 37 -122 107 -266 189 -389 37 -55 67 -100
67 -102 0 -1 -39 -31 -87 -66 -504 -368 -898 -901 -1135 -1533 -128 -339 -190
-651 -191 -950 0 -347 76 -583 264 -821 115 -144 332 -283 524 -335 68 -18 88
-29 138 -74 68 -62 162 -114 262 -145 93 -29 259 -37 335 -17 53 15 55 14 69
-6 71 -100 221 -259 345 -362 443 -369 1114 -533 1696 -414 415 85 812 336
1096 693 30 38 32 39 65 27 19 -7 77 -15 129 -18 105 -6 215 14 328 60 66 27
164 91 201 131 15 16 35 26 52 26 15 0 63 7 107 15 234 45 463 165 631 333
183 182 286 383 337 657 26 138 26 471 1 635 -77 494 -275 1005 -556 1435
-202 309 -524 628 -805 798 -45 27 -80 53 -78 60 2 6 22 42 45 81 22 39 60
118 84 176 l43 105 66 7 c269 27 491 326 511 688 12 227 -56 396 -193 476
l-42 25 20 62 c65 208 62 525 -6 788 -120 460 -378 846 -756 1130 -29 22 -59
43 -67 47 -11 7 -6 22 25 75 67 114 87 192 86 337 0 108 -4 136 -27 205 -95
286 -366 501 -706 560 -76 14 -241 18 -316 8z m292 -207 c93 -20 191 -56 260
-97 75 -44 212 -180 246 -245 79 -150 74 -353 -12 -471 l-30 -41 -130 65 -130
65 29 37 c16 20 36 56 45 80 17 50 20 163 5 192 -16 30 -38 23 -49 -16 -23
-86 -89 -158 -189 -209 -31 -16 -37 -15 -195 24 -202 50 -307 68 -472 81 -198
16 -195 15 -195 47 1 128 112 301 252 392 146 95 379 135 565 96z m-627 -731
c404 -45 755 -156 1043 -331 447 -273 747 -671 862 -1146 60 -246 67 -436 26
-626 -31 -142 -38 -154 -106 -176 -48 -15 -59 -16 -67 -4 -66 98 -140 252
-184 380 -22 65 -22 68 -4 68 34 0 130 41 140 60 16 30 11 59 -12 74 -13 8
-81 22 -153 31 -329 42 -610 128 -881 270 -465 241 -766 570 -909 993 -25 73
-37 97 -51 97 -12 0 -37 -37 -82 -120 -151 -280 -302 -458 -542 -639 -178
-134 -355 -232 -575 -319 -168 -66 -304 -105 -529 -152 -93 -19 -180 -42 -193
-50 -36 -24 -31 -70 10 -95 17 -11 47 -20 65 -20 17 0 32 -3 32 -6 0 -28 -230
-526 -255 -552 -1 -2 -15 0 -29 4 -53 13 -91 167 -90 364 1 199 41 386 129
601 247 604 769 1051 1430 1224 113 30 334 67 460 78 107 9 344 5 465 -8z
m-306 -742 c9 -35 87 -171 140 -243 53 -73 203 -227 285 -294 206 -169 519
-337 826 -446 81 -28 333 -94 394 -102 21 -3 30 -20 75 -153 29 -82 67 -179
85 -214 18 -35 29 -67 24 -71 -23 -22 -406 -99 -436 -87 -8 3 -17 21 -21 41
-11 58 -82 187 -135 247 -61 69 -143 125 -231 158 -92 35 -272 37 -377 3 -90
-28 -206 -105 -273 -180 -47 -53 -130 -198 -130 -228 0 -23 -16 -24 -76 -1
-51 19 -78 22 -199 22 -140 -1 -157 -4 -276 -50 -13 -5 -18 2 -24 31 -14 75
-75 176 -154 255 -103 103 -200 152 -336 169 -280 36 -553 -139 -650 -417 -21
-60 -27 -68 -47 -65 -38 5 -189 42 -258 62 l-66 20 61 122 c56 113 175 421
175 452 0 8 18 16 49 20 73 10 221 50 367 100 485 166 913 463 1125 780 35 52
67 95 70 96 4 0 10 -12 13 -27z m-768 -1324 c199 -74 310 -274 282 -506 -16
-139 -118 -282 -243 -344 -301 -148 -635 72 -635 417 0 316 309 540 596 433z
m1712 10 c315 -106 399 -537 151 -774 -237 -226 -618 -128 -719 184 -19 59
-22 87 -18 169 3 91 7 106 42 177 62 125 182 227 299 255 66 16 181 11 245
-11z m-2768 -399 c30 -10 109 -30 175 -45 66 -15 122 -28 124 -30 1 -2 9 -37
16 -77 73 -418 503 -637 870 -445 33 18 92 63 131 102 89 89 156 215 175 330
l13 77 46 23 c120 61 285 71 403 25 65 -25 70 -31 85 -134 17 -112 78 -225
170 -315 89 -88 150 -124 258 -151 137 -35 282 -21 411 41 97 46 225 176 275
279 37 74 68 180 68 231 0 25 4 27 63 33 34 4 141 23 237 43 96 19 183 36 194
37 14 1 23 -14 41 -69 25 -76 61 -117 95 -108 11 3 34 25 50 48 57 83 127 122
201 112 97 -13 151 -102 157 -262 5 -126 -15 -223 -67 -330 -47 -99 -105 -165
-173 -199 -79 -39 -112 -35 -160 19 -38 43 -68 55 -94 37 -17 -11 -34 -48 -34
-74 0 -13 -18 -75 -39 -139 -149 -442 -444 -747 -854 -884 -56 -19 -133 -39
-170 -46 -65 -11 -270 -10 -281 2 -3 3 7 30 23 60 39 73 47 114 27 144 -11 17
-22 22 -34 18 -9 -4 -60 -47 -112 -97 -105 -100 -185 -149 -310 -188 -111 -34
-283 -32 -395 5 -152 50 -270 134 -386 274 -41 48 -78 83 -88 83 -70 0 -42
-154 46 -251 33 -36 33 -37 11 -43 -39 -10 -180 -6 -258 8 -241 43 -516 193
-711 386 -193 191 -308 426 -356 725 -21 133 -13 417 16 557 34 167 52 220 70
212 9 -3 41 -14 71 -24z m-320 -5 c17 -9 30 -19 30 -23 0 -4 -9 -48 -19 -97
-34 -156 -44 -279 -38 -442 l5 -153 -45 32 c-82 59 -135 171 -153 324 -9 83 0
196 20 249 38 99 127 148 200 110z m4016 -1611 c387 -243 678 -583 928 -1083
90 -178 141 -302 201 -486 253 -768 173 -1377 -223 -1696 -112 -90 -273 -176
-400 -214 l-22 -6 21 53 c58 143 77 297 55 445 -33 223 -137 396 -303 504 -57
38 -185 89 -220 89 -24 0 -1 22 90 90 108 81 246 149 415 205 133 44 145 50
157 78 28 67 -23 101 -135 92 -62 -6 -165 -26 -202 -40 -16 -6 -18 0 -18 56 0
136 -53 390 -111 536 -43 108 -104 207 -157 253 -45 40 -57 45 -86 34 -25 -10
-19 -46 24 -155 77 -193 127 -398 154 -639 9 -74 16 -142 16 -151 0 -10 -29
-34 -70 -59 -39 -23 -87 -55 -106 -72 -19 -17 -37 -29 -39 -26 -3 2 -16 44
-30 94 -79 273 -248 558 -464 785 -162 171 -334 299 -520 387 l-74 36 71 16
c117 28 197 73 287 164 97 97 169 227 188 339 l11 67 71 42 c108 64 210 144
299 235 45 45 86 83 92 83 5 0 50 -25 100 -56z m-3521 -101 c99 -80 236 -168
332 -214 78 -37 82 -41 88 -77 25 -173 58 -251 142 -342 60 -66 120 -105 195
-131 l48 -16 -72 -36 c-247 -122 -491 -313 -664 -520 -155 -184 -289 -418
-350 -609 -16 -49 -31 -88 -34 -88 -3 0 -23 17 -46 38 l-41 37 13 138 c22 228
73 425 190 734 58 152 64 186 37 215 -25 28 -48 22 -88 -24 -154 -181 -294
-577 -312 -884 l-6 -111 -46 14 c-64 20 -217 28 -267 14 -52 -14 -78 -42 -70
-74 13 -54 35 -66 161 -92 135 -27 175 -39 261 -83 63 -32 164 -106 164 -121
0 -5 -17 -12 -37 -16 -55 -10 -180 -62 -227 -94 -157 -109 -271 -316 -296
-541 -13 -111 2 -263 36 -373 6 -18 4 -18 -28 -1 -63 32 -183 118 -237 168
-207 196 -306 520 -273 895 68 753 514 1595 1099 2074 68 55 242 177 252 177
3 0 38 -26 76 -57z m2738 -330 c-41 -120 -141 -219 -271 -266 -67 -24 -200
-28 -272 -8 -54 15 -160 61 -160 70 0 3 15 33 34 66 70 127 69 126 96 120 14
-3 70 -8 126 -12 115 -7 251 12 375 51 41 13 77 24 81 25 4 1 0 -20 -9 -46z
m-1584 -15 c7 -24 26 -67 43 -96 29 -52 30 -54 12 -74 -23 -25 -90 -59 -163
-83 -73 -24 -209 -17 -266 12 -81 42 -151 141 -169 237 -7 37 -6 38 16 33 130
-32 328 -33 433 -3 77 22 80 21 94 -26z m755 -68 c-37 -45 -81 -92 -98 -105
-77 -59 -195 -72 -281 -31 -48 22 -120 90 -145 135 -15 30 -11 33 31 20 58
-17 239 -23 314 -10 75 13 185 44 213 61 37 21 30 7 -34 -70z m-554 -225 c11
-13 8 -15 -13 -15 -14 0 -34 -3 -44 -6 -13 -4 -11 0 7 15 30 25 34 25 50 6z
m596 -21 c17 -14 17 -15 1 -10 -10 3 -23 6 -28 6 -5 0 -9 5 -9 10 0 14 13 12
36 -6z m-166 -169 c432 -54 722 -189 1029 -481 218 -208 389 -485 471 -767 27
-93 60 -256 60 -296 0 -12 -23 -22 -82 -39 -171 -47 -287 -122 -336 -216 -22
-42 -27 -64 -27 -126 0 -53 6 -85 18 -108 l18 -33 -34 -39 c-41 -48 -57 -98
-57 -177 0 -88 23 -144 81 -198 l50 -47 -18 -37 c-27 -53 -25 -192 3 -248 l21
-41 -57 -69 c-85 -103 -236 -241 -333 -306 -106 -71 -321 -176 -442 -216 -155
-51 -274 -71 -460 -78 -338 -11 -648 60 -955 218 -177 92 -286 174 -462 350
l-157 156 25 49 c23 44 25 58 22 140 -3 63 -9 99 -20 116 -16 24 -16 26 7 36
44 20 108 87 131 137 17 36 24 68 24 116 0 78 -13 121 -50 169 l-28 36 22 39
c17 32 21 57 21 130 0 81 -3 95 -30 144 -16 29 -48 68 -71 87 -72 60 -218 114
-304 114 -36 0 -36 5 -14 120 63 335 291 715 570 952 272 231 627 386 964 421
91 10 288 6 400 -8z m-1935 -1655 c96 -14 181 -47 221 -87 29 -29 34 -40 34
-83 0 -114 -81 -134 -382 -94 -39 5 -50 2 -67 -15 -40 -40 -16 -94 54 -121 59
-23 209 -42 280 -36 59 5 75 3 102 -13 57 -35 68 -134 20 -179 -56 -53 -145
-63 -344 -40 -91 10 -104 10 -127 -6 -19 -12 -26 -25 -26 -47 0 -67 96 -113
259 -126 71 -5 84 -9 101 -31 12 -15 20 -40 20 -65 0 -88 -115 -148 -253 -132
-233 26 -403 171 -463 397 -18 68 -18 254 0 339 36 169 145 298 285 335 56 15
192 17 286 4z m3883 -105 c118 -109 167 -249 159 -450 -8 -193 -62 -321 -187
-438 -107 -102 -226 -149 -376 -148 -146 1 -225 44 -227 125 -2 64 23 78 144
81 122 3 200 24 241 65 33 33 36 62 8 90 -19 19 -31 20 -183 18 -157 -3 -164
-2 -219 24 -82 38 -106 95 -75 171 24 56 35 60 127 46 141 -22 325 14 375 73
29 34 32 60 8 83 -18 18 -20 18 -223 -5 -165 -20 -240 12 -240 101 0 36 6 48
38 79 62 59 209 104 395 121 61 6 114 12 116 15 2 2 17 4 32 4 20 0 45 -16 87
-55z"/>
<path d="M5740 8257 c0 -7 17 -42 37 -77 53 -92 235 -270 347 -339 153 -95
346 -160 485 -164 103 -3 104 14 4 59 -210 96 -448 218 -533 274 -113 74 -242
174 -289 224 -37 38 -51 44 -51 23z"/>
<path d="M5651 7511 c-82 -29 -119 -82 -87 -126 13 -18 27 -20 154 -21 160 -2
241 -20 349 -81 70 -39 106 -40 111 -5 12 80 -126 198 -273 237 -80 20 -187
19 -254 -4z"/>
<path d="M4103 7506 c-156 -38 -311 -174 -263 -231 18 -21 29 -19 112 20 112
53 198 68 346 60 104 -5 128 -3 148 10 53 35 9 114 -79 140 -61 18 -191 18
-264 1z"/>
<path d="M4045 6711 c-71 -35 -91 -52 -133 -110 -35 -49 -52 -122 -32 -146 23
-27 58 -17 115 35 76 68 122 90 192 90 70 0 112 -22 148 -79 27 -43 66 -61 94
-44 39 25 16 130 -45 202 -71 85 -224 108 -339 52z"/>
<path d="M5783 6730 c-118 -24 -223 -131 -223 -228 0 -79 49 -84 113 -11 96
109 240 107 325 -6 40 -53 72 -66 112 -45 24 13 26 49 4 112 -42 126 -192 206
-331 178z"/>
<path d="M4825 6377 c-71 -34 -107 -67 -138 -129 -90 -178 -27 -360 150 -429
82 -32 224 -32 306 0 76 30 127 80 127 125 0 67 -51 82 -149 42 -111 -45 -211
-42 -278 10 -111 85 -13 273 142 274 46 0 85 23 85 49 0 9 -14 30 -30 46 -27
26 -40 30 -98 33 -54 2 -76 -2 -117 -21z"/>
<path d="M7193 6354 c-14 -22 -18 -54 -21 -165 -4 -131 -3 -137 16 -144 80
-25 148 188 94 295 -23 47 -63 53 -89 14z"/>
<path d="M6539 6038 c0 -1 -1 -52 -2 -113 -2 -95 -6 -117 -28 -165 -34 -72
-71 -115 -136 -157 -54 -34 -63 -49 -41 -71 31 -31 127 0 195 61 106 97 136
296 61 407 -20 29 -46 49 -49 38z"/>
<path d="M3462 6004 c-66 -46 -91 -204 -45 -290 51 -96 175 -165 247 -138 28
11 18 31 -28 58 -24 14 -62 46 -83 70 -63 71 -77 145 -48 244 22 71 6 91 -43
56z"/>
<path d="M4448 5900 c-14 -11 -54 -61 -88 -112 -75 -110 -107 -147 -177 -199
-39 -29 -53 -46 -53 -64 0 -27 25 -45 62 -45 29 0 118 41 162 75 l34 26 22
-35 c29 -48 135 -143 205 -185 31 -19 93 -48 138 -65 77 -28 91 -30 232 -30
131 -1 159 2 219 22 141 47 255 124 338 228 l50 62 45 -34 c71 -54 103 -67
168 -68 58 -1 60 0 63 26 3 22 -6 33 -50 66 -78 58 -139 128 -192 220 -72 123
-121 157 -167 111 -18 -18 -21 -29 -16 -71 4 -27 18 -70 32 -95 30 -55 26 -65
-57 -136 -87 -73 -171 -122 -253 -146 -106 -32 -276 -27 -377 11 -98 37 -172
84 -244 156 l-63 63 30 62 c31 66 39 143 17 165 -18 18 -52 15 -80 -8z"/>
<path d="M5000 3941 c-102 -31 -170 -116 -170 -212 0 -151 189 -246 338 -170
101 52 148 167 108 263 -20 46 -85 104 -133 117 -43 12 -106 13 -143 2z"/>
<path d="M4209 3594 c-24 -20 -73 -51 -110 -69 -69 -35 -115 -79 -125 -121 -4
-14 -4 -47 -2 -74 6 -63 39 -106 109 -145 47 -26 64 -30 129 -30 62 0 84 5
126 27 91 48 143 132 144 231 0 94 -37 159 -112 198 -60 30 -109 25 -159 -17z"/>
<path d="M5701 3407 c-49 -19 -108 -72 -133 -120 -30 -59 -37 -199 -13 -262
33 -89 118 -145 215 -144 66 1 104 14 162 55 83 58 127 189 98 292 -13 51 -75
122 -137 159 -51 30 -141 39 -192 20z"/>
<path d="M4864 2942 c-116 -41 -187 -138 -186 -255 0 -34 5 -75 12 -92 64
-164 297 -208 425 -80 56 55 68 97 63 204 -5 100 -29 155 -91 205 -33 26 -48
31 -105 33 -46 2 -83 -2 -118 -15z"/>
<path d="M3785 2876 c-130 -57 -123 -265 13 -360 80 -56 209 -43 255 27 71
108 26 261 -94 321 -59 29 -125 34 -174 12z"/>
<path d="M6190 2724 c-76 -33 -110 -86 -110 -172 0 -76 28 -121 87 -141 106
-37 222 63 223 192 0 26 -7 61 -15 77 -29 57 -111 76 -185 44z"/>
<path d="M5620 2155 c-56 -18 -124 -74 -150 -126 -13 -24 -20 -58 -20 -92 0
-155 99 -256 261 -265 88 -5 135 7 195 50 58 42 79 93 79 193 -1 66 -5 88 -25
125 -29 51 -95 105 -148 120 -51 14 -138 11 -192 -5z"/>
<path d="M4270 2101 c-122 -38 -190 -121 -190 -235 0 -204 175 -315 351 -223
134 69 183 202 120 326 -49 96 -187 160 -281 132z"/>
<path d="M4974 1490 c-59 -14 -132 -80 -158 -142 -25 -58 -21 -149 9 -207 46
-92 129 -141 240 -141 87 0 138 22 188 80 42 49 52 87 44 171 -10 111 -90 200
-208 233 -60 17 -68 18 -115 6z"/>
<path d="M4084 1291 c-39 -24 -58 -69 -52 -125 11 -90 97 -160 199 -161 89 0
125 48 107 145 -21 116 -165 195 -254 141z"/>
<path d="M5815 1221 c-43 -19 -100 -78 -116 -118 -25 -67 1 -113 66 -113 124
0 233 101 209 195 -14 55 -84 71 -159 36z"/>
</g>
</svg>
